<?xml version="1.0" encoding="utf-8"?>
<!-- Generator: Adobe Illustrator 16.0.0, SVG Export Plug-In . SVG Version: 6.00 Build 0)  -->
<!DOCTYPE svg PUBLIC "-//W3C//DTD SVG 1.1//EN" "http://www.w3.org/Graphics/SVG/1.1/DTD/svg11.dtd">
<svg version="1.1" id="Layer_1" xmlns="http://www.w3.org/2000/svg" xmlns:xlink="http://www.w3.org/1999/xlink" x="0px" y="0px"
	 width="300px" height="300px" viewBox="0 0 300 300" enable-background="new 0 0 300 300" xml:space="preserve">
<g id="apuRkx_1_">
	<g>
		<path fill="#FFFFFF" d="M150.976,272.383c-0.333,0-0.667,0-1,0c-4.814-1.705-6.167-3.389-6.311-7.973
			c-0.057-1.832-0.011-3.666-0.012-5.5c0-2.466,0-4.932,0-7.414c-13.959-1.361-26.795-5.068-38.486-12.199
			c-23.555-14.367-37.899-35.112-42.693-62.332c-0.731-4.155-1.013-8.39-1.503-12.588c0-0.666,0-1.333,0-2
			c2.786,0.144,5.572,0.287,8.497,0.438c-3.46-22.517,0.571-43.216,12.282-62.508c3.411,1.281,6.628,2.49,9.992,3.754
			c1.852-16.759,7.601-31.648,17.563-45.128c4.014,2.07,7.907,4.078,12.039,6.208c6.025-16.181,15.621-29.667,29.178-40.514
			c13.687,10.707,23.152,24.265,29.137,40.363c4.123-2.103,8.014-4.088,11.976-6.109c10.128,13.579,15.757,28.576,17.61,45.183
			c3.55-1.333,6.767-2.54,10.055-3.773c11.783,19.467,15.689,40.198,12.208,62.558c3.022-0.168,5.748-0.319,8.474-0.471c0,2,0,4,0,6
			c-0.532,3.677-0.811,7.411-1.635,11.021c-7.862,34.471-28.562,57.417-62.181,68.419c-6.011,1.967-12.399,2.778-18.866,4.179
			c0,3.557,0.003,7.377-0.001,11.197C157.292,269.034,156.248,270.548,150.976,272.383z M76.584,177.779
			c5.963,32.363,37.556,63.96,81.401,59.934c20.4-1.873,37.414-11.12,50.675-26.867c8.08-9.596,13.562-20.486,16.026-33.137
			c-17.172,3.068-30.131,13.032-42.948,23.355c-2.713-4.385-5.214-8.406-7.696-12.439c-5.705-9.271-12.955-17.081-21.877-23.344
			c-1.179-0.828-2.018-0.979-3.286-0.067c-6.537,4.703-12.521,10.015-17.191,16.577c-4.379,6.155-8.335,12.61-12.625,19.159
			C106.334,190.765,93.472,180.644,76.584,177.779z M212.942,117.537c-19.665,10.4-32.667,25.897-38.836,47.011
			c-0.215,0.734,0.283,1.901,0.811,2.59c2.123,2.77,4.44,5.389,6.581,8.145c1.394,1.795,2.606,3.731,3.899,5.604
			c9.416-6.867,19.314-12.123,30.35-15.139c0.708-0.193,1.471-1.285,1.663-2.09c1.831-7.661,2.229-15.453,1.505-23.268
			C218.192,132.602,216.356,125.062,212.942,117.537z M115.267,180.715c3.576-4.456,6.983-8.831,10.552-13.069
			c1.031-1.225,1.319-2.21,0.86-3.772c-5.414-18.427-16.422-32.597-32.506-42.918c-1.917-1.229-3.984-2.223-5.859-3.258
			c-0.338,0.278-0.432,0.317-0.46,0.384c-6.402,14.889-7.585,30.272-4.224,46.044c0.148,0.697,1.242,1.404,2.046,1.713
			c2.624,1.006,5.355,1.731,7.979,2.74C101.515,171.598,108.739,175.788,115.267,180.715z M150.555,98.113
			c-0.54,0.509-0.857,0.769-1.128,1.07c-9.099,10.089-15.033,21.779-17.988,35.047c-0.724,3.249-0.544,5.985,1.31,8.901
			c1.806,2.841,2.925,6.12,4.325,9.216c0.525,1.16,0.99,2.348,1.489,3.537c3.523-2.236,6.84-4.293,10.101-6.436
			c1.269-0.833,2.354-0.843,3.628-0.007c3.31,2.173,6.676,4.258,9.833,6.26c2.638-5.348,5.251-10.602,7.802-15.886
			c0.257-0.533,0.294-1.293,0.15-1.878c-1.184-4.82-2.108-9.737-3.734-14.408C163.025,114.002,157.74,105.604,150.555,98.113z
			 M150.313,42.884c-0.617,0.812-1.027,1.433-1.515,1.985c-5.89,6.661-10.232,14.229-13.781,22.37
			c-1.936,4.44-2.281,7.771,2.246,10.889c2.58,1.776,4.436,4.605,6.703,7.053c2.269-1.894,4.354-3.634,6.514-5.438
			c2.262,1.873,4.399,3.64,5.844,4.836c3.887-3.519,7.487-6.726,10.996-10.03c0.391-0.368,0.508-1.366,0.332-1.943
			C164.285,61.555,158.729,51.762,150.313,42.884z M119.956,124.264c3.085-10.005,7.81-19.266,14.056-27.76
			c0.295-0.401,0.199-1.464-0.133-1.894c-5.486-7.094-12.007-13.042-19.893-17.812c-5.82,10.76-8.782,22.086-8.958,34.144
			c-0.008,0.533,0.486,1.208,0.938,1.591C110.517,116.396,115.109,120.212,119.956,124.264z M186.962,76.785
			c-7.737,4.809-14.189,10.609-19.722,17.478c-0.998,1.239-0.598,1.935,0.177,2.98c5.278,7.112,9.354,14.874,12.307,23.224
			c0.456,1.289,0.902,2.581,1.306,3.737c4.85-4.04,9.586-7.934,14.232-11.931c0.5-0.43,0.718-1.477,0.665-2.209
			c-0.249-3.473-0.447-6.967-1.013-10.396C193.598,91.69,191.088,84.097,186.962,76.785z"/>
	</g>
</g>
</svg>
